#!OML:ASF F:\VICON\USERDATA\INSTALL\rory3\rory3.ASF
:FULLY-SPECIFIED
:DEGREES
235
root 4.47264 17.471 2.67145 18.0447 -20.3658 -4.29322
lowerback -4.32348 3.64151 3.32376
upperback -7.53238 4.82078 0.224526
thorax -5.14901 2.2261 -1.61747
lowerneck -11.3425 3.28062 1.34449
upperneck 37.8467 3.43438 2.65523
head 15.0456 1.96747 1.40237
rclavicle -9.74534e-015 8.34122e-015
rhumerus 27.6324 -12.4537 -23.2587
rradius 110.986
rwrist -53.4731
rhand -9.04426 -46.504
rfingers 7.12502
rthumb 16.9038 -75.7884
lclavicle -9.74534e-015 8.34122e-015
lhumerus 41.0114 26.5108 5.02876
lradius 58.3137
lwrist 55.7562
lhand -31.8279 -26.4868
lfingers 7.12502
lthumb -5.08253 3.43227
rfemur -20.9366 -5.5305 -0.349456
rtibia 25.7386
rfoot -9.02208 -32.9709
rtoes 36.386
lfemur -29.0987 1.42443 -25.0161
ltibia 27.1517
lfoot -13.572 13.3359
ltoes 7.27245
236
root 4.47983 17.4658 2.65752 18.1286 -20.3738 -4.11462
lowerback -4.47002 3.59995 3.02684
upperback -7.54485 4.76159 0.2278
thorax -5.10462 2.21325 -1.44156
lowerneck -11.1478 3.14823 1.2372
upperneck 37.7892 3.33704 2.46383
head 14.9742 1.88417 1.31896
rclavicle -8.19632e-015 -2.55003e-014
rhumerus 27.6829 -12.1107 -23.3635
rradius 110.939
rwrist -53.3197
rhand -8.96541 -46.498
rfingers 7.12502
rthumb 16.9797 -75.7758
lclavicle -8.19632e-015 -2.55003e-014
lhumerus 41.318 26.4665 5.74131
lradius 58.7056
lwrist 55.7819
lhand -31.4558 -26.1166
lfingers 7.12502
lthumb -4.72323 3.81075
rfemur -21.5756 -5.84382 -0.431858
rtibia 26.3604
rfoot -6.27948 -33.7386
rtoes 33.2115
lfemur -29.3515 1.51739 -25.2461
ltibia 27.2226
lfoot -13.542 13.1763
ltoes 7.24834
237
root 4.4901 17.4615 2.67893 17.7097 -20.83 -4.24162
lowerback -4.43403 3.74378 3.20997
upperback -7.25909 4.94775 0.236228
thorax -4.79944 2.30611 -1.52233
lowerneck -11.0615 3.06527 1.18198
upperneck 37.7372 3.26677 2.3559
head 14.9304 1.83124 1.26888
rclavicle 1.07818e-014 1.0548e-014
rhumerus 27.9594 -11.9911 -23.7627
rradius 110.901
rwrist -53.3945
rhand -8.44476 -47.2727
rfingers 7.12502
rthumb 17.4808 -76.5068
lclavicle 1.07818e-014 1.0548e-014
lhumerus 41.6088 26.4356 6.3422
lradius 59.0952
lwrist 55.9083
lhand -30.5757 -25.0649
lfingers 7.12502
lthumb -3.8734 4.87969
rfemur -21.672 -5.7254 -0.425014
rtibia 26.9784
rfoot -4.53881 -33.8098
rtoes 31.3833
lfemur -28.811 1.60757 -25.2178
ltibia 27.3344
lfoot -13.7621 13.5789
ltoes 7.53267
238
root 4.49993 17.4512 2.67509 17.6296 -20.8566 -4.29443
lowerback -4.27735 3.71292 3.24224
upperback -7.27515 4.91486 0.271682
thorax -4.9069 2.2865 -1.51574
lowerneck -10.8981 3.06443 1.20913
upperneck 37.7813 3.2917 2.26545
head 14.9164 1.83252 1.22721
rclavicle 1.23807e-014 2.73453e-014
rhumerus 28.3033 -11.5428 -24.2512
rradius 110.669
rwrist -53.2196
rhand -7.96152 -47.3587
rfingers 7.12502
rthumb 17.9459 -76.5507
lclavicle 1.23807e-014 2.73453e-014
lhumerus 41.7528 26.1468 6.75285
lradius 59.4807
lwrist 56.0558
lhand -29.9746 -24.1599
lfingers 7.12502
lthumb -3.29293 5.79437
rfemur -22.0253 -5.88115 -0.346738
rtibia 27.5662
rfoot -5.10432 -33.7235
rtoes 31.9446
lfemur -28.839 1.57139 -25.1827
ltibia 27.5244
lfoot -13.8552 13.6455
ltoes 7.50912
239
root 4.51211 17.447 2.64216 17.7709 -20.6333 -4.28236
lowerback -3.87645 3.59313 3.10057
upperback -7.53498 4.78095 0.304019
thorax -5.42968 2.21447 -1.44398
lowerneck -10.6525 3.05338 1.32862
upperneck 37.9267 3.30196 2.1082
head 14.9373 1.83105 1.13985
rclavicle -1.46603e-014 5.00689e-015
rhumerus 28.3788 -10.9292 -24.5104
rradius 110.443
rwrist -52.8264
rhand -7.83115 -46.6891
rfingers 7.12502
rthumb 18.0713 -75.8696
lclavicle -1.46603e-014 5.00689e-015
lhumerus 41.7398 25.5495 6.92483
lradius 59.7913
lwrist 56.0895
lhand -30.3669 -24.5878
lfingers 7.12502
lthumb -3.67176 5.3603
rfemur -22.6289 -6.09423 -0.233412
rtibia 28.1325
rfoot -8.3476 -33.4678
rtoes 35.0421
lfemur -29.2846 1.53734 -25.1647
ltibia 27.7299
lfoot -13.7763 13.4243
ltoes 7.49194
240
root 4.52734 17.4399 2.63113 17.5343 -20.7772 -4.39487
lowerback -3.50065 3.6059 3.1948
upperback -7.45268 4.81451 0.327906
thorax -5.54825 2.22507 -1.49396
lowerneck -10.6621 2.97917 1.2499
upperneck 37.9995 3.21083 2.09884
head 14.9736 1.77789 1.13758
rclavicle 9.62152e-014 5.07957e-014
rhumerus 28.5963 -10.628 -24.7591
rradius 110.32
rwrist -52.7026
rhand -8.17549 -46.3346
rfingers 7.12502
rthumb 17.74 -75.5454
lclavicle 9.62152e-014 5.07957e-014
lhumerus 42.0753 25.8706 7.65717
lradius 60.2814
lwrist 57.7993
lhand -26.6631 -20.0099
lfingers 7.12502
lthumb -0.0947141 9.96979
rfemur -22.9814 -5.96675 -0.159555
rtibia 28.7992
rfoot -8.47548 -33.5719
rtoes 34.822
lfemur -29.1726 1.53828 -25.0798
ltibia 27.9418
lfoot -13.822 13.6013
ltoes 7.66741
241
root 4.53865 17.4309 2.62999 17.3848 -20.9154 -4.37785
lowerback -3.58942 3.6069 3.14623
upperback -7.20582 4.80672 0.333339
thorax -5.23899 2.23305 -1.44531
lowerneck -10.8009 2.83786 0.866421
upperneck 37.8569 3.02276 2.29582
head 14.9227 1.66902 1.25771
rclavicle -3.99052e-015 -2.18818e-014
rhumerus 28.9985 -10.5405 -25.0659
rradius 110.181
rwrist -52.8044
rhand -8.37646 -46.5457
rfingers 7.12502
rthumb 17.5466 -75.7738
lclavicle -3.99052e-015 -2.18818e-014
lhumerus 42.3052 26.0908 8.14099
lradius 60.6658
lwrist 58.4297
lhand -25.1798 -17.2595
lfingers 7.12502
lthumb 1.33787 12.7161
rfemur -23.3977 -6.01027 -0.207402
rtibia 29.4681
rfoot -7.11337 -33.8218
rtoes 33.5396
lfemur -29.0893 1.67214 -25.1992
ltibia 28.1179
lfoot -13.9159 13.6775
ltoes 7.35229
242
root 4.54687 17.4215 2.62661 17.2769 -21.0429 -4.25697
lowerback -3.67088 3.61395 2.98312
upperback -7.0116 4.80786 0.299278
thorax -4.99558 2.24808 -1.37702
lowerneck -10.9514 2.66901 0.557586
upperneck 37.7744 2.80094 2.42175
head 14.9097 1.5467 1.33166
rclavicle 7.70888e-015 -1.08686e-014
rhumerus 29.2335 -10.5257 -25.3565
rradius 110.148
rwrist -52.8189
rhand -7.81856 -47.033
rfingers 7.12502
rthumb 18.0834 -76.2124
lclavicle 7.70888e-015 -1.08686e-014
lhumerus 42.7276 26.0632 8.85972
lradius 60.8797
lwrist 57.9791
lhand -26.0403 -17.5012
lfingers 7.12502
lthumb 0.506827 12.4779
rfemur -23.8838 -6.23242 -0.320293
rtibia 30.1044
rfoot -4.04998 -34.4266
rtoes 30.7472
lfemur -29.0839 1.83376 -25.4262
ltibia 28.2829
lfoot -14.0406 13.651
ltoes 7.15787
243
root 4.55856 17.4152 2.62193 17.2124 -21.0067 -4.2815
lowerback -3.53501 3.59711 3.03614
upperback -7.00636 4.79173 0.315907
thorax -5.06492 2.23646 -1.3983
lowerneck -10.9577 2.53689 0.415723
upperneck 37.9162 2.6304 2.4362
head 14.9793 1.45353 1.34028
rclavicle -2.96107e-015 1.97294e-014
rhumerus 29.2324 -10.2141 -25.4894
rradius 110.18
rwrist -52.6758
rhand -7.72218 -47.154
rfingers 7.12502
rthumb 18.1761 -76.3248
lclavicle -2.96107e-015 1.97294e-014
lhumerus 42.861 25.5394 9.23248
lradius 61.0591
lwrist 57.504
lhand -28.6284 -21.7359
lfingers 7.12502
lthumb -1.99287 8.23453
rfemur -24.3772 -6.71459 -0.191117
rtibia 30.7734
rfoot 3.88186 -35.0256
rtoes 22.4498
lfemur -29.0947 1.91814 -25.4652
ltibia 28.4233
lfoot -14.1496 13.5312
ltoes 7.26237
244
root 4.57274 17.4105 2.62359 17.1546 -20.9114 -4.39455
lowerback -3.4511 3.57456 3.22013
upperback -7.03062 4.76644 0.34229
thorax -5.12784 2.2135 -1.4791
lowerneck -10.8954 2.46501 0.370892
upperneck 38.1175 2.529 2.43827
head 15.064 1.40172 1.33728
rclavicle -2.0001e-014 -1.09487e-015
rhumerus 29.1656 -9.74761 -25.606
rradius 110.167
rwrist -52.5369
rhand -8.05464 -47.0824
rfingers 7.12502
rthumb 17.8563 -76.2826
lclavicle -2.0001e-014 -1.09487e-015
lhumerus 42.8151 24.9193 9.3128
lradius 61.3163
lwrist 57.5308
lhand -30.7256 -26.1793
lfingers 7.12502
lthumb -4.01812 3.76257
rfemur -24.7962 -7.30553 0.0429235
rtibia 31.4655
rfoot 9.23153 -34.6135
rtoes 16.864
lfemur -29.0137 2.08399 -25.4612
ltibia 28.5467
lfoot -14.3192 13.3358
ltoes 7.67553
245
root 4.58329 17.4041 2.62712 17.0571 -20.8767 -4.40648
lowerback -3.53375 3.55983 3.28933
upperback -6.97361 4.73949 0.292901
thorax -5.01237 2.19811 -1.56003
lowerneck -10.9089 2.38731 0.414983
upperneck 38.3197 2.39672 2.43076
head 15.1706 1.34796 1.31115
rclavicle -4.69653e-014 -3.40916e-014
rhumerus 29.2045 -9.44728 -25.9495
rradius 110.132
rwrist -52.5172
rhand -7.74194 -47.1757
rfingers 7.12502
rthumb 18.1571 -76.3482
lclavicle -4.69653e-014 -3.40916e-014
lhumerus 43.1305 24.5985 9.77854
lradius 61.5256
lwrist 57.5693
lhand -30.6232 -26.5708
lfingers 7.12502
lthumb -3.91927 3.37286
rfemur -25.196 -7.76035 0.130128
rtibia 32.1578
rfoot 11.8813 -33.8164
rtoes 13.96
lfemur -28.9284 2.197 -25.529
ltibia 28.6983
lfoot -14.686 13.0938
ltoes 9.14339
